<svg id="svg" version="1.1" width="400" height="400" xmlns="http://www.w3.org/2000/svg" xmlns:xlink="http://www.w3.org/1999/xlink" style="display: block;"><g id="svgg"><path id="path0" d="M358.000 82.400 C 358.000 82.622,356.933 82.800,355.600 82.800 C 354.267 82.800,353.200 82.978,353.200 83.200 C 353.200 83.420,352.660 83.600,352.000 83.600 C 351.340 83.600,350.800 83.780,350.800 84.000 C 350.800 84.220,350.440 84.400,350.000 84.400 C 349.560 84.400,349.200 84.580,349.200 84.800 C 349.200 85.020,348.880 85.200,348.488 85.200 C 348.097 85.200,347.517 85.560,347.200 86.000 C 346.883 86.440,346.375 86.800,346.072 86.800 C 345.769 86.800,345.017 87.340,344.400 88.000 C 343.783 88.660,343.095 89.200,342.870 89.200 C 342.645 89.200,341.218 90.428,339.700 91.929 C 338.181 93.430,336.560 94.923,336.098 95.246 C 334.532 96.343,330.181 100.591,328.787 102.384 C 328.024 103.366,326.185 105.382,324.700 106.865 C 323.215 108.348,322.000 109.718,322.000 109.910 C 322.000 110.102,321.100 111.222,320.000 112.400 C 318.900 113.578,318.000 114.707,318.000 114.910 C 318.000 115.113,317.460 115.783,316.800 116.400 C 316.140 117.017,315.600 117.737,315.600 118.000 C 315.600 118.263,315.060 118.983,314.400 119.600 C 313.740 120.217,313.200 120.892,313.200 121.101 C 313.200 121.310,312.660 122.046,312.000 122.737 C 311.340 123.428,310.800 124.198,310.800 124.449 C 310.800 124.701,310.484 125.197,310.097 125.553 C 309.711 125.909,309.140 126.695,308.830 127.300 C 308.519 127.905,308.115 128.400,307.932 128.400 C 307.750 128.400,307.600 128.625,307.599 128.900 C 307.599 129.175,307.059 130.030,306.400 130.800 C 305.741 131.570,305.201 132.425,305.201 132.700 C 305.200 132.975,305.020 133.200,304.800 133.200 C 304.580 133.200,304.400 133.436,304.400 133.725 C 304.400 134.013,304.040 134.636,303.600 135.108 C 303.160 135.580,302.800 136.204,302.800 136.495 C 302.800 136.786,302.440 137.283,302.000 137.600 C 301.560 137.917,301.200 138.414,301.200 138.705 C 301.200 138.996,300.840 139.620,300.400 140.092 C 299.960 140.564,299.600 141.187,299.600 141.475 C 299.600 141.764,299.420 142.000,299.200 142.000 C 298.980 142.000,298.800 142.320,298.800 142.712 C 298.800 143.103,298.440 143.683,298.000 144.000 C 297.560 144.317,297.200 144.897,297.200 145.288 C 297.200 145.680,297.020 146.000,296.800 146.000 C 296.580 146.000,296.400 146.320,296.400 146.712 C 296.400 147.103,296.040 147.683,295.600 148.000 C 295.160 148.317,294.800 148.897,294.800 149.288 C 294.800 149.680,294.620 150.000,294.400 150.000 C 294.180 150.000,294.000 150.278,294.000 150.617 C 294.000 150.956,293.640 151.620,293.200 152.092 C 292.760 152.564,292.400 153.187,292.400 153.475 C 292.400 153.764,292.220 154.000,292.000 154.000 C 291.780 154.000,291.600 154.360,291.600 154.800 C 291.600 155.240,291.420 155.600,291.200 155.600 C 290.980 155.600,290.800 155.878,290.800 156.217 C 290.800 156.556,290.440 157.220,290.000 157.692 C 289.560 158.164,289.200 158.787,289.200 159.075 C 289.200 159.364,289.020 159.600,288.800 159.600 C 288.580 159.600,288.400 159.960,288.400 160.400 C 288.400 160.840,288.220 161.200,288.000 161.200 C 287.780 161.200,287.600 161.560,287.600 162.000 C 287.600 162.440,287.420 162.800,287.200 162.800 C 286.980 162.800,286.800 163.078,286.800 163.417 C 286.800 163.756,286.440 164.420,286.000 164.892 C 285.560 165.364,285.200 165.987,285.200 166.275 C 285.200 166.564,285.020 166.800,284.800 166.800 C 284.580 166.800,284.400 167.160,284.400 167.600 C 284.400 168.040,284.220 168.400,284.000 168.400 C 283.780 168.400,283.600 168.760,283.600 169.200 C 283.600 169.640,283.420 170.000,283.200 170.000 C 282.980 170.000,282.800 170.360,282.800 170.800 C 282.800 171.240,282.620 171.600,282.400 171.600 C 282.180 171.600,282.000 171.960,282.000 172.400 C 282.000 172.840,281.865 173.201,281.700 173.203 C 281.535 173.205,281.202 173.610,280.960 174.103 C 279.778 176.511,278.570 178.613,278.300 178.733 C 278.135 178.807,278.000 179.212,278.000 179.633 C 278.000 180.055,277.820 180.400,277.600 180.400 C 277.380 180.400,277.200 180.760,277.200 181.200 C 277.200 181.640,277.020 182.000,276.800 182.000 C 276.580 182.000,276.400 182.360,276.400 182.800 C 276.400 183.240,276.220 183.600,276.000 183.600 C 275.780 183.600,275.600 183.960,275.600 184.400 C 275.600 184.840,275.420 185.200,275.200 185.200 C 274.980 185.200,274.800 185.560,274.800 186.000 C 274.800 186.440,274.620 186.800,274.400 186.800 C 274.180 186.800,274.000 187.160,274.000 187.600 C 274.000 188.040,273.820 188.400,273.600 188.400 C 273.380 188.400,273.200 188.760,273.200 189.200 C 273.200 189.640,273.020 190.000,272.800 190.000 C 272.580 190.000,272.400 190.360,272.400 190.800 C 272.400 191.240,272.220 191.600,272.000 191.600 C 271.780 191.600,271.600 191.960,271.600 192.400 C 271.600 192.840,271.420 193.200,271.200 193.200 C 270.980 193.200,270.800 193.560,270.800 194.000 C 270.800 194.440,270.620 194.800,270.400 194.800 C 270.180 194.800,270.000 195.160,270.000 195.600 C 270.000 196.040,269.820 196.400,269.600 196.400 C 269.380 196.400,269.200 196.760,269.200 197.200 C 269.200 197.640,269.020 198.000,268.800 198.000 C 268.580 198.000,268.400 198.360,268.400 198.800 C 268.400 199.240,268.220 199.600,268.000 199.600 C 267.780 199.600,267.600 199.960,267.600 200.400 C 267.600 200.840,267.420 201.200,267.200 201.200 C 266.980 201.200,266.800 201.545,266.800 201.967 C 266.800 202.388,266.665 202.793,266.500 202.867 C 266.202 202.999,265.035 205.065,263.437 208.290 C 262.545 210.092,261.200 210.638,261.200 209.200 C 261.200 208.760,261.020 208.400,260.800 208.400 C 260.580 208.400,260.400 208.164,260.400 207.875 C 260.400 207.587,260.040 206.964,259.600 206.492 C 259.160 206.020,258.800 205.356,258.800 205.017 C 258.800 204.678,258.620 204.400,258.400 204.400 C 258.180 204.400,258.000 204.040,258.000 203.600 C 258.000 203.160,257.820 202.800,257.600 202.800 C 257.380 202.800,257.200 202.440,257.200 202.000 C 257.200 201.560,257.020 201.200,256.800 201.200 C 256.580 201.200,256.400 200.840,256.400 200.400 C 256.400 199.960,256.220 199.600,256.000 199.600 C 255.780 199.600,255.600 199.255,255.600 198.833 C 255.600 198.412,255.465 198.007,255.300 197.933 C 255.030 197.813,253.822 195.711,252.640 193.303 C 252.398 192.810,252.065 192.405,251.900 192.403 C 251.735 192.401,251.600 192.040,251.600 191.600 C 251.600 191.160,251.420 190.800,251.200 190.800 C 250.980 190.800,250.800 190.440,250.800 190.000 C 250.800 189.560,250.620 189.200,250.400 189.200 C 250.180 189.200,250.000 188.840,250.000 188.400 C 250.000 187.960,249.820 187.600,249.600 187.600 C 249.380 187.600,249.200 187.240,249.200 186.800 C 249.200 186.360,249.020 186.000,248.800 186.000 C 248.580 186.000,248.400 185.640,248.400 185.200 C 248.400 184.760,248.220 184.400,248.000 184.400 C 247.780 184.400,247.600 184.040,247.600 183.600 C 247.600 183.160,247.420 182.800,247.200 182.800 C 246.980 182.800,246.800 182.440,246.800 182.000 C 246.800 181.560,246.620 181.200,246.400 181.200 C 246.180 181.200,246.000 180.840,246.000 180.400 C 246.000 179.960,245.820 179.600,245.600 179.600 C 245.380 179.600,245.200 179.240,245.200 178.800 C 245.200 178.360,245.020 178.000,244.800 178.000 C 244.580 178.000,244.400 177.640,244.400 177.200 C 244.400 176.760,244.220 176.400,244.000 176.400 C 243.780 176.400,243.600 176.040,243.600 175.600 C 243.600 175.160,243.420 174.800,243.200 174.800 C 242.980 174.800,242.800 174.440,242.800 174.000 C 242.800 173.560,242.620 173.200,242.400 173.200 C 242.180 173.200,242.000 172.840,242.000 172.400 C 242.000 171.960,241.820 171.600,241.600 171.600 C 241.380 171.600,241.200 171.328,241.200 170.995 C 241.200 170.662,241.020 170.032,240.800 169.595 C 240.580 169.158,240.220 168.442,240.000 168.005 C 239.780 167.568,239.600 166.938,239.600 166.605 C 239.600 166.272,239.420 166.000,239.200 166.000 C 238.980 166.000,238.800 165.640,238.800 165.200 C 238.800 164.760,238.620 164.400,238.400 164.400 C 238.180 164.400,238.000 164.040,238.000 163.600 C 238.000 163.160,237.820 162.800,237.600 162.800 C 237.380 162.800,237.200 162.440,237.200 162.000 C 237.200 161.560,237.020 161.200,236.800 161.200 C 236.580 161.200,236.400 160.840,236.400 160.400 C 236.400 159.960,236.220 159.600,236.000 159.600 C 235.780 159.600,235.600 159.060,235.600 158.400 C 235.600 157.740,235.420 157.200,235.200 157.200 C 234.980 157.200,234.800 156.840,234.800 156.400 C 234.800 155.960,234.620 155.600,234.400 155.600 C 234.180 155.600,234.000 155.240,234.000 154.800 C 234.000 154.360,233.820 154.000,233.600 154.000 C 233.380 154.000,233.200 153.561,233.200 153.024 C 233.200 152.487,233.020 151.936,232.800 151.800 C 232.580 151.664,232.400 151.203,232.400 150.776 C 232.400 150.349,232.220 150.000,232.000 150.000 C 231.780 150.000,231.600 149.640,231.600 149.200 C 231.600 148.760,231.420 148.400,231.200 148.400 C 230.980 148.400,230.800 147.860,230.800 147.200 C 230.800 146.540,230.620 146.000,230.400 146.000 C 230.180 146.000,230.000 145.640,230.000 145.200 C 230.000 144.760,229.820 144.400,229.600 144.400 C 229.380 144.400,229.200 143.860,229.200 143.200 C 229.200 142.540,229.020 142.000,228.800 142.000 C 228.580 142.000,228.400 141.640,228.400 141.200 C 228.400 140.760,228.220 140.400,228.000 140.400 C 227.780 140.400,227.600 139.860,227.600 139.200 C 227.600 138.540,227.420 138.000,227.200 138.000 C 226.980 138.000,226.800 137.640,226.800 137.200 C 226.800 136.760,226.620 136.400,226.400 136.400 C 226.180 136.400,226.000 135.860,226.000 135.200 C 226.000 134.540,225.820 134.000,225.600 134.000 C 225.380 134.000,225.200 133.460,225.200 132.800 C 225.200 132.140,225.020 131.600,224.800 131.600 C 224.580 131.600,224.400 131.161,224.400 130.624 C 224.400 130.087,224.220 129.536,224.000 129.400 C 223.780 129.264,223.600 128.803,223.600 128.376 C 223.600 127.949,223.420 127.600,223.200 127.600 C 222.980 127.600,222.800 127.060,222.800 126.400 C 222.800 125.740,222.620 125.200,222.400 125.200 C 222.180 125.200,222.000 124.660,222.000 124.000 C 222.000 123.340,221.820 122.800,221.600 122.800 C 221.380 122.800,221.200 122.271,221.200 121.624 C 221.200 120.977,221.020 120.336,220.800 120.200 C 220.580 120.064,220.400 119.434,220.400 118.800 C 220.400 118.166,220.220 117.536,220.000 117.400 C 219.780 117.264,219.600 116.623,219.600 115.976 C 219.600 115.329,219.420 114.800,219.200 114.800 C 218.980 114.800,218.800 114.181,218.800 113.424 C 218.800 112.667,218.620 111.936,218.400 111.800 C 218.180 111.664,218.000 111.023,218.000 110.376 C 218.000 109.729,217.820 109.200,217.600 109.200 C 217.380 109.200,217.200 108.480,217.200 107.600 C 217.200 106.720,217.020 106.000,216.800 106.000 C 216.580 106.000,216.400 105.280,216.400 104.400 C 216.400 103.520,216.220 102.800,216.000 102.800 C 215.780 102.800,215.600 101.900,215.600 100.800 C 215.600 99.700,215.420 98.800,215.200 98.800 C 214.980 98.800,214.800 97.911,214.800 96.824 C 214.800 95.737,214.620 94.736,214.400 94.600 C 214.180 94.464,214.000 93.193,214.000 91.776 C 214.000 90.325,213.825 89.200,213.600 89.200 C 213.378 89.200,213.200 88.133,213.200 86.800 C 213.200 85.467,213.022 84.400,212.800 84.400 C 212.580 84.400,212.400 84.040,212.400 83.600 C 212.400 82.889,212.133 82.800,210.000 82.800 C 208.667 82.800,207.600 82.978,207.600 83.200 C 207.600 83.420,207.240 83.600,206.800 83.600 C 206.360 83.600,206.000 83.780,206.000 84.000 C 206.000 84.220,205.764 84.400,205.475 84.400 C 205.187 84.400,204.564 84.760,204.092 85.200 C 203.620 85.640,202.956 86.000,202.617 86.000 C 202.278 86.000,202.000 86.180,202.000 86.400 C 202.000 86.620,201.680 86.800,201.288 86.800 C 200.897 86.800,200.317 87.160,200.000 87.600 C 199.683 88.040,199.103 88.400,198.712 88.400 C 198.320 88.400,198.000 88.580,198.000 88.800 C 198.000 89.020,197.680 89.200,197.288 89.200 C 196.897 89.200,196.317 89.560,196.000 90.000 C 195.683 90.440,195.103 90.800,194.712 90.800 C 194.320 90.800,194.000 90.980,194.000 91.200 C 194.000 91.420,193.764 91.600,193.475 91.600 C 193.187 91.600,192.564 91.960,192.092 92.400 C 191.620 92.840,190.996 93.200,190.705 93.200 C 190.414 93.200,189.917 93.560,189.600 94.000 C 189.283 94.440,188.703 94.800,188.312 94.800 C 187.920 94.800,187.600 94.980,187.600 95.200 C 187.600 95.420,187.364 95.600,187.075 95.600 C 186.787 95.600,186.164 95.960,185.692 96.400 C 185.220 96.840,184.596 97.200,184.305 97.200 C 184.014 97.200,183.517 97.560,183.200 98.000 C 182.883 98.440,182.386 98.800,182.095 98.800 C 181.804 98.800,181.180 99.160,180.708 99.600 C 180.236 100.040,179.613 100.400,179.325 100.400 C 179.036 100.400,178.800 100.580,178.800 100.800 C 178.800 101.020,178.564 101.200,178.275 101.200 C 177.987 101.200,177.402 101.515,176.975 101.900 C 176.549 102.285,175.705 102.855,175.100 103.168 C 174.495 103.480,174.000 103.885,174.000 104.068 C 174.000 104.250,173.680 104.400,173.288 104.400 C 172.897 104.400,172.317 104.760,172.000 105.200 C 171.683 105.640,171.143 106.000,170.800 106.000 C 170.457 106.000,169.917 106.360,169.600 106.800 C 169.283 107.240,168.743 107.600,168.400 107.600 C 168.057 107.600,167.517 107.960,167.200 108.400 C 166.883 108.840,166.343 109.200,166.000 109.200 C 165.657 109.200,165.117 109.560,164.800 110.000 C 164.483 110.440,164.020 110.800,163.771 110.800 C 163.522 110.800,162.754 111.340,162.063 112.000 C 161.372 112.660,160.620 113.200,160.390 113.200 C 158.331 113.200,155.930 119.568,157.600 120.600 C 157.820 120.736,158.000 121.827,158.000 123.024 C 158.000 124.221,158.180 125.200,158.400 125.200 C 158.620 125.200,158.800 126.100,158.800 127.200 C 158.800 128.300,158.980 129.200,159.200 129.200 C 159.420 129.200,159.600 129.999,159.600 130.976 C 159.600 131.953,159.780 132.864,160.000 133.000 C 160.220 133.136,160.400 133.957,160.400 134.824 C 160.400 135.691,160.580 136.400,160.800 136.400 C 161.020 136.400,161.200 137.109,161.200 137.976 C 161.200 138.843,161.380 139.664,161.600 139.800 C 161.820 139.936,162.000 140.746,162.000 141.600 C 162.000 142.454,162.180 143.264,162.400 143.400 C 162.620 143.536,162.800 144.256,162.800 145.000 C 162.800 145.744,162.980 146.464,163.200 146.600 C 163.420 146.736,163.600 147.456,163.600 148.200 C 163.600 148.944,163.780 149.664,164.000 149.800 C 164.220 149.936,164.400 150.656,164.400 151.400 C 164.400 152.144,164.580 152.864,164.800 153.000 C 165.020 153.136,165.200 153.856,165.200 154.600 C 165.200 155.344,165.380 156.064,165.600 156.200 C 165.820 156.336,166.000 156.966,166.000 157.600 C 166.000 158.234,166.180 158.864,166.400 159.000 C 166.620 159.136,166.800 159.867,166.800 160.624 C 166.800 161.381,166.980 162.000,167.200 162.000 C 167.420 162.000,167.600 162.720,167.600 163.600 C 167.600 164.480,167.780 165.200,168.000 165.200 C 168.220 165.200,168.400 165.819,168.400 166.576 C 168.400 167.333,168.580 168.064,168.800 168.200 C 169.020 168.336,169.200 168.977,169.200 169.624 C 169.200 170.271,169.380 170.800,169.600 170.800 C 169.820 170.800,170.000 171.520,170.000 172.400 C 170.000 173.280,170.180 174.000,170.400 174.000 C 170.620 174.000,170.800 174.540,170.800 175.200 C 170.800 175.860,170.980 176.400,171.200 176.400 C 171.420 176.400,171.600 177.019,171.600 177.776 C 171.600 178.533,171.780 179.264,172.000 179.400 C 172.220 179.536,172.400 180.177,172.400 180.824 C 172.400 181.471,172.580 182.000,172.800 182.000 C 173.020 182.000,173.200 182.540,173.200 183.200 C 173.200 183.860,173.380 184.400,173.600 184.400 C 173.820 184.400,174.000 184.929,174.000 185.576 C 174.000 186.223,174.180 186.864,174.400 187.000 C 174.620 187.136,174.800 187.766,174.800 188.400 C 174.800 189.034,174.980 189.664,175.200 189.800 C 175.420 189.936,175.600 190.476,175.600 191.000 C 175.600 191.524,175.780 192.064,176.000 192.200 C 176.220 192.336,176.400 192.876,176.400 193.400 C 176.400 193.924,176.580 194.464,176.800 194.600 C 177.020 194.736,177.200 195.276,177.200 195.800 C 177.200 196.324,177.380 196.864,177.600 197.000 C 177.820 197.136,178.000 197.597,178.000 198.024 C 178.000 198.451,178.180 198.800,178.400 198.800 C 178.620 198.800,178.800 199.340,178.800 200.000 C 178.800 200.660,178.980 201.200,179.200 201.200 C 179.420 201.200,179.600 201.740,179.600 202.400 C 179.600 203.060,179.780 203.600,180.000 203.600 C 180.220 203.600,180.400 203.960,180.400 204.400 C 180.400 204.840,180.580 205.200,180.800 205.200 C 181.020 205.200,181.200 205.740,181.200 206.400 C 181.200 207.060,181.380 207.600,181.600 207.600 C 181.820 207.600,182.000 207.960,182.000 208.400 C 182.000 208.840,182.180 209.200,182.400 209.200 C 182.620 209.200,182.800 209.639,182.800 210.176 C 182.800 210.713,182.980 211.264,183.200 211.400 C 183.420 211.536,183.600 211.997,183.600 212.424 C 183.600 212.851,183.780 213.200,184.000 213.200 C 184.220 213.200,184.400 213.560,184.400 214.000 C 184.400 214.440,184.580 214.800,184.800 214.800 C 185.020 214.800,185.200 215.160,185.200 215.600 C 185.200 216.040,185.380 216.400,185.600 216.400 C 185.820 216.400,186.000 216.760,186.000 217.200 C 186.000 217.640,186.180 218.000,186.400 218.000 C 186.620 218.000,186.800 218.360,186.800 218.800 C 186.800 219.240,186.980 219.600,187.200 219.600 C 187.420 219.600,187.600 219.960,187.600 220.400 C 187.600 220.840,187.780 221.200,188.000 221.200 C 188.220 221.200,188.400 221.560,188.400 222.000 C 188.400 222.440,188.580 222.800,188.800 222.800 C 189.020 222.800,189.200 223.160,189.200 223.600 C 189.200 224.040,189.380 224.400,189.600 224.400 C 189.820 224.400,190.000 224.678,190.000 225.017 C 190.000 225.356,190.360 226.020,190.800 226.492 C 191.240 226.964,191.600 227.587,191.600 227.875 C 191.600 228.164,191.780 228.400,192.000 228.400 C 192.220 228.400,192.400 228.760,192.400 229.200 C 192.400 229.640,192.580 230.000,192.800 230.000 C 193.020 230.000,193.200 230.236,193.200 230.525 C 193.200 230.813,193.560 231.436,194.000 231.908 C 194.440 232.380,194.800 232.962,194.800 233.200 C 194.800 233.438,195.160 234.020,195.600 234.492 C 196.040 234.964,196.400 235.587,196.400 235.875 C 196.400 236.164,196.580 236.400,196.800 236.400 C 197.020 236.400,197.200 236.636,197.200 236.925 C 197.200 237.213,197.560 237.836,198.000 238.308 C 198.440 238.780,198.800 239.404,198.800 239.695 C 198.800 239.986,199.160 240.483,199.600 240.800 C 200.040 241.117,200.400 241.657,200.400 242.000 C 200.400 242.343,200.760 242.883,201.200 243.200 C 201.640 243.517,202.000 244.057,202.000 244.400 C 202.000 244.743,202.360 245.283,202.800 245.600 C 203.240 245.917,203.600 246.431,203.600 246.741 C 203.600 247.052,203.916 247.597,204.303 247.953 C 204.689 248.309,205.260 249.095,205.570 249.700 C 205.881 250.305,206.285 250.800,206.468 250.800 C 206.650 250.800,206.800 251.036,206.800 251.325 C 206.800 251.613,207.115 252.198,207.500 252.625 C 207.885 253.051,208.455 253.895,208.768 254.500 C 209.080 255.105,209.485 255.600,209.668 255.600 C 209.850 255.600,210.000 255.836,210.000 256.125 C 210.000 256.413,210.315 256.998,210.700 257.425 C 211.085 257.851,211.655 258.695,211.968 259.300 C 212.280 259.905,212.685 260.400,212.868 260.400 C 213.050 260.400,213.200 260.720,213.200 261.112 C 213.200 261.503,213.560 262.083,214.000 262.400 C 214.440 262.717,214.800 263.297,214.800 263.688 C 214.800 264.080,214.980 264.400,215.200 264.400 C 215.420 264.400,215.600 264.760,215.600 265.200 C 215.600 265.640,215.364 266.000,215.075 266.000 C 214.787 266.000,214.202 266.315,213.775 266.700 C 213.349 267.085,212.505 267.655,211.900 267.968 C 211.295 268.280,210.800 268.685,210.800 268.868 C 210.800 269.050,210.440 269.200,210.000 269.200 C 209.560 269.200,209.200 269.380,209.200 269.600 C 209.200 269.820,208.964 270.000,208.675 270.000 C 208.387 270.000,207.764 270.360,207.292 270.800 C 206.820 271.240,206.156 271.600,205.817 271.600 C 205.478 271.600,205.200 271.780,205.200 272.000 C 205.200 272.220,204.855 272.400,204.433 272.400 C 204.012 272.400,203.607 272.535,203.533 272.700 C 203.366 273.076,201.236 274.375,200.300 274.671 C 199.915 274.793,199.600 275.052,199.600 275.247 C 199.600 275.441,199.240 275.600,198.800 275.600 C 198.360 275.600,198.000 275.780,198.000 276.000 C 198.000 276.220,197.640 276.400,197.200 276.400 C 196.760 276.400,196.400 276.580,196.400 276.800 C 196.400 277.020,196.040 277.200,195.600 277.200 C 195.160 277.200,194.800 277.380,194.800 277.600 C 194.800 277.820,194.440 278.000,194.000 278.000 C 193.560 278.000,193.200 278.180,193.200 278.400 C 193.200 278.620,192.840 278.800,192.400 278.800 C 191.960 278.800,191.600 278.980,191.600 279.200 C 191.600 279.420,191.240 279.600,190.800 279.600 C 190.360 279.600,190.000 279.780,190.000 280.000 C 190.000 280.220,189.640 280.400,189.200 280.400 C 188.760 280.400,188.400 280.580,188.400 280.800 C 188.400 281.020,188.040 281.200,187.600 281.200 C 187.160 281.200,186.800 281.380,186.800 281.600 C 186.800 281.820,186.440 282.000,186.000 282.000 C 185.560 282.000,185.200 282.180,185.200 282.400 C 185.200 282.620,184.840 282.800,184.400 282.800 C 183.960 282.800,183.600 282.980,183.600 283.200 C 183.600 283.420,183.240 283.600,182.800 283.600 C 182.360 283.600,182.000 283.780,182.000 284.000 C 182.000 284.220,181.651 284.400,181.224 284.400 C 180.797 284.400,180.336 284.580,180.200 284.800 C 180.064 285.020,179.513 285.200,178.976 285.200 C 178.439 285.200,178.000 285.380,178.000 285.600 C 178.000 285.820,177.460 286.000,176.800 286.000 C 176.140 286.000,175.600 286.180,175.600 286.400 C 175.600 286.620,175.060 286.800,174.400 286.800 C 173.740 286.800,173.200 286.980,173.200 287.200 C 173.200 287.420,172.480 287.600,171.600 287.600 C 170.720 287.600,170.000 287.780,170.000 288.000 C 170.000 288.220,169.291 288.400,168.424 288.400 C 167.557 288.400,166.736 288.580,166.600 288.800 C 166.464 289.020,165.384 289.200,164.200 289.200 C 163.016 289.200,161.936 289.380,161.800 289.600 C 161.664 289.820,160.033 290.000,158.176 290.000 C 156.192 290.000,154.800 290.165,154.800 290.400 C 154.800 290.654,151.733 290.800,146.400 290.800 C 141.067 290.800,138.000 290.654,138.000 290.400 C 138.000 290.163,136.541 290.000,134.424 290.000 C 132.457 290.000,130.736 289.820,130.600 289.600 C 130.464 289.380,129.294 289.200,128.000 289.200 C 126.706 289.200,125.536 289.020,125.400 288.800 C 125.264 288.580,124.263 288.400,123.176 288.400 C 122.089 288.400,121.200 288.220,121.200 288.000 C 121.200 287.780,120.480 287.600,119.600 287.600 C 118.720 287.600,118.000 287.420,118.000 287.200 C 118.000 286.980,117.280 286.800,116.400 286.800 C 115.520 286.800,114.800 286.620,114.800 286.400 C 114.800 286.180,114.271 286.000,113.624 286.000 C 112.977 286.000,112.336 285.820,112.200 285.600 C 112.064 285.380,111.333 285.200,110.576 285.200 C 109.819 285.200,109.200 285.020,109.200 284.800 C 109.200 284.580,108.660 284.400,108.000 284.400 C 107.340 284.400,106.800 284.220,106.800 284.000 C 106.800 283.780,106.361 283.600,105.824 283.600 C 105.287 283.600,104.736 283.420,104.600 283.200 C 104.464 282.980,104.003 282.800,103.576 282.800 C 103.149 282.800,102.800 282.620,102.800 282.400 C 102.800 282.180,102.260 282.000,101.600 282.000 C 100.940 282.000,100.400 281.820,100.400 281.600 C 100.400 281.380,100.040 281.200,99.600 281.200 C 99.160 281.200,98.800 281.020,98.800 280.800 C 98.800 280.580,98.547 280.400,98.238 280.400 C 97.704 280.400,96.557 279.891,92.700 277.940 C 91.765 277.468,90.596 276.883,90.103 276.640 C 89.610 276.398,89.205 276.065,89.203 275.900 C 89.201 275.735,88.840 275.600,88.400 275.600 C 87.960 275.600,87.600 275.420,87.600 275.200 C 87.600 274.980,87.240 274.800,86.800 274.800 C 86.360 274.800,86.000 274.650,86.000 274.468 C 86.000 274.285,85.505 273.880,84.900 273.568 C 84.295 273.255,83.451 272.685,83.025 272.300 C 82.598 271.915,82.013 271.600,81.725 271.600 C 81.436 271.600,81.200 271.450,81.200 271.268 C 81.200 271.085,80.708 270.680,80.107 270.368 C 79.506 270.055,78.489 269.305,77.848 268.700 C 77.206 268.095,76.518 267.600,76.319 267.600 C 76.119 267.600,74.931 266.561,73.678 265.290 C 72.425 264.020,70.770 262.536,70.000 261.992 C 68.179 260.707,54.493 247.021,53.208 245.200 C 52.664 244.430,51.221 242.810,50.000 241.600 C 48.779 240.390,47.336 238.770,46.792 238.000 C 46.249 237.230,45.128 235.903,44.302 235.052 C 43.476 234.200,42.800 233.327,42.800 233.112 C 42.800 232.897,42.260 232.217,41.600 231.600 C 40.940 230.983,40.400 230.263,40.400 230.000 C 40.400 229.737,39.860 229.017,39.200 228.400 C 38.540 227.783,38.000 227.126,38.000 226.940 C 37.998 225.660,34.957 223.600,33.070 223.600 C 31.642 223.600,29.200 225.738,29.200 226.989 C 29.200 227.325,29.020 227.600,28.800 227.600 C 28.580 227.600,28.400 227.836,28.400 228.125 C 28.400 228.413,28.040 229.036,27.600 229.508 C 27.160 229.980,26.800 230.562,26.800 230.800 C 26.800 231.038,26.440 231.620,26.000 232.092 C 25.560 232.564,25.200 233.187,25.200 233.475 C 25.200 233.764,25.020 234.000,24.800 234.000 C 24.580 234.000,24.400 234.320,24.400 234.712 C 24.400 235.103,24.040 235.683,23.600 236.000 C 23.160 236.317,22.800 236.897,22.800 237.288 C 22.800 237.680,22.620 238.000,22.400 238.000 C 22.180 238.000,22.000 238.236,22.000 238.525 C 22.000 238.813,21.640 239.436,21.200 239.908 C 20.760 240.380,20.400 241.004,20.400 241.295 C 20.400 241.586,20.040 242.083,19.600 242.400 C 19.160 242.717,18.800 243.214,18.800 243.505 C 18.800 243.796,18.440 244.420,18.000 244.892 C 17.560 245.364,17.200 245.987,17.200 246.275 C 17.200 246.564,17.020 246.800,16.800 246.800 C 16.580 246.800,16.400 247.036,16.400 247.325 C 16.400 247.613,16.040 248.236,15.600 248.708 C 15.160 249.180,14.800 249.804,14.800 250.095 C 14.800 250.386,14.440 250.883,14.000 251.200 C 13.560 251.517,13.200 252.014,13.200 252.305 C 13.200 252.596,12.840 253.220,12.400 253.692 C 11.960 254.164,11.600 254.787,11.600 255.075 C 11.600 255.364,11.420 255.600,11.200 255.600 C 10.980 255.600,10.800 255.878,10.800 256.217 C 10.800 256.556,10.440 257.220,10.000 257.692 C 9.560 258.164,9.200 258.787,9.200 259.075 C 9.200 259.364,9.020 259.600,8.800 259.600 C 8.580 259.600,8.400 259.960,8.400 260.400 C 8.400 260.840,8.220 261.200,8.000 261.200 C 7.767 261.200,7.600 262.533,7.600 264.400 C 7.600 266.267,7.767 267.600,8.000 267.600 C 8.220 267.600,8.400 268.320,8.400 269.200 C 8.400 270.080,8.580 270.800,8.800 270.800 C 9.020 270.800,9.200 271.520,9.200 272.400 C 9.200 273.280,9.380 274.000,9.600 274.000 C 9.820 274.000,10.000 274.540,10.000 275.200 C 10.000 275.860,10.180 276.400,10.400 276.400 C 10.620 276.400,10.800 277.120,10.800 278.000 C 10.800 278.880,10.980 279.600,11.200 279.600 C 11.420 279.600,11.600 280.129,11.600 280.776 C 11.600 281.423,11.780 282.064,12.000 282.200 C 12.220 282.336,12.400 283.067,12.400 283.824 C 12.400 284.581,12.580 285.200,12.800 285.200 C 13.020 285.200,13.200 285.819,13.200 286.576 C 13.200 287.333,13.380 288.064,13.600 288.200 C 13.820 288.336,14.000 288.977,14.000 289.624 C 14.000 290.271,14.180 290.800,14.400 290.800 C 14.620 290.800,14.800 291.520,14.800 292.400 C 14.800 293.280,14.980 294.000,15.200 294.000 C 15.420 294.000,15.600 294.720,15.600 295.600 C 15.600 296.480,15.780 297.200,16.000 297.200 C 16.220 297.200,16.400 297.920,16.400 298.800 C 16.400 299.680,16.580 300.400,16.800 300.400 C 17.020 300.400,17.200 301.120,17.200 302.000 C 17.200 302.880,17.380 303.600,17.600 303.600 C 17.820 303.600,18.000 304.320,18.000 305.200 C 18.000 306.080,18.180 306.800,18.400 306.800 C 18.620 306.800,18.800 307.310,18.800 307.932 C 18.800 308.764,19.092 309.215,19.900 309.630 C 20.505 309.940,21.291 310.511,21.647 310.897 C 22.003 311.284,22.548 311.600,22.859 311.600 C 23.169 311.600,23.683 311.960,24.000 312.400 C 24.317 312.840,24.773 313.200,25.013 313.200 C 25.253 313.200,25.798 313.515,26.225 313.900 C 26.651 314.285,27.495 314.855,28.100 315.168 C 28.705 315.480,29.200 315.885,29.200 316.068 C 29.200 316.250,29.436 316.400,29.725 316.400 C 30.013 316.400,30.598 316.715,31.025 317.100 C 31.451 317.485,32.295 318.055,32.900 318.368 C 33.505 318.680,34.000 319.085,34.000 319.268 C 34.000 319.450,34.320 319.600,34.712 319.600 C 35.103 319.600,35.683 319.960,36.000 320.400 C 36.317 320.840,36.897 321.200,37.288 321.200 C 37.680 321.200,38.000 321.380,38.000 321.600 C 38.000 321.820,38.278 322.000,38.617 322.000 C 38.956 322.000,39.620 322.360,40.092 322.800 C 40.564 323.240,41.187 323.600,41.475 323.600 C 41.764 323.600,42.000 323.780,42.000 324.000 C 42.000 324.220,42.360 324.400,42.800 324.400 C 43.240 324.400,43.600 324.580,43.600 324.800 C 43.600 325.020,43.945 325.200,44.367 325.200 C 44.788 325.200,45.193 325.335,45.267 325.500 C 45.340 325.665,46.210 326.229,47.200 326.754 C 48.190 327.278,49.963 328.223,51.141 328.854 C 52.318 329.484,53.623 330.000,54.041 330.000 C 54.458 330.000,54.800 330.180,54.800 330.400 C 54.800 330.620,55.160 330.800,55.600 330.800 C 56.040 330.800,56.400 330.980,56.400 331.200 C 56.400 331.420,56.760 331.600,57.200 331.600 C 57.640 331.600,58.000 331.780,58.000 332.000 C 58.000 332.220,58.439 332.400,58.976 332.400 C 59.513 332.400,60.064 332.580,60.200 332.800 C 60.336 333.020,60.797 333.200,61.224 333.200 C 61.651 333.200,62.000 333.380,62.000 333.600 C 62.000 333.820,62.540 334.000,63.200 334.000 C 63.860 334.000,64.400 334.180,64.400 334.400 C 64.400 334.620,64.940 334.800,65.600 334.800 C 66.260 334.800,66.800 334.980,66.800 335.200 C 66.800 335.420,67.239 335.600,67.776 335.600 C 68.313 335.600,68.864 335.780,69.000 336.000 C 69.136 336.220,69.777 336.400,70.424 336.400 C 71.071 336.400,71.600 336.580,71.600 336.800 C 71.600 337.020,72.219 337.200,72.976 337.200 C 73.733 337.200,74.464 337.380,74.600 337.600 C 74.736 337.820,75.377 338.000,76.024 338.000 C 76.671 338.000,77.200 338.180,77.200 338.400 C 77.200 338.620,78.100 338.800,79.200 338.800 C 80.300 338.800,81.200 338.980,81.200 339.200 C 81.200 339.420,82.100 339.600,83.200 339.600 C 84.300 339.600,85.200 339.780,85.200 340.000 C 85.200 340.229,86.400 340.400,88.000 340.400 C 89.600 340.400,90.800 340.571,90.800 340.800 C 90.800 341.042,92.525 341.200,95.176 341.200 C 97.663 341.200,99.660 341.373,99.800 341.600 C 100.130 342.135,111.870 342.135,112.200 341.600 C 112.339 341.375,114.263 341.200,116.600 341.200 C 118.937 341.200,120.861 341.025,121.000 340.800 C 121.136 340.580,122.306 340.400,123.600 340.400 C 124.894 340.400,126.064 340.220,126.200 340.000 C 126.336 339.780,127.326 339.600,128.400 339.600 C 129.474 339.600,130.464 339.420,130.600 339.200 C 130.736 338.980,131.636 338.800,132.600 338.800 C 133.564 338.800,134.464 338.620,134.600 338.400 C 134.736 338.180,135.456 338.000,136.200 338.000 C 136.944 338.000,137.664 337.820,137.800 337.600 C 137.936 337.380,138.566 337.200,139.200 337.200 C 139.834 337.200,140.464 337.020,140.600 336.800 C 140.736 336.580,141.467 336.400,142.224 336.400 C 142.981 336.400,143.600 336.220,143.600 336.000 C 143.600 335.780,144.140 335.600,144.800 335.600 C 145.460 335.600,146.000 335.420,146.000 335.200 C 146.000 334.980,146.540 334.800,147.200 334.800 C 147.860 334.800,148.400 334.620,148.400 334.400 C 148.400 334.180,148.929 334.000,149.576 334.000 C 150.223 334.000,150.864 333.820,151.000 333.600 C 151.136 333.380,151.687 333.200,152.224 333.200 C 152.761 333.200,153.200 333.020,153.200 332.800 C 153.200 332.580,153.740 332.400,154.400 332.400 C 155.060 332.400,155.600 332.220,155.600 332.000 C 155.600 331.780,156.039 331.600,156.576 331.600 C 157.113 331.600,157.664 331.420,157.800 331.200 C 157.936 330.980,158.397 330.800,158.824 330.800 C 159.251 330.800,159.600 330.620,159.600 330.400 C 159.600 330.180,159.960 330.000,160.400 330.000 C 160.840 330.000,161.200 329.820,161.200 329.600 C 161.200 329.380,161.740 329.200,162.400 329.200 C 163.060 329.200,163.600 329.020,163.600 328.800 C 163.600 328.580,163.960 328.400,164.400 328.400 C 164.840 328.400,165.200 328.220,165.200 328.000 C 165.200 327.780,165.560 327.600,166.000 327.600 C 166.440 327.600,166.800 327.420,166.800 327.200 C 166.800 326.980,167.072 326.800,167.405 326.800 C 167.738 326.800,168.413 326.592,168.905 326.338 C 170.782 325.367,171.207 325.200,171.795 325.200 C 172.128 325.200,172.400 325.020,172.400 324.800 C 172.400 324.580,172.760 324.400,173.200 324.400 C 173.640 324.400,174.000 324.220,174.000 324.000 C 174.000 323.780,174.360 323.600,174.800 323.600 C 175.240 323.600,175.600 323.420,175.600 323.200 C 175.600 322.980,175.945 322.800,176.367 322.800 C 176.788 322.800,177.193 322.665,177.267 322.500 C 177.340 322.335,178.255 321.767,179.300 321.237 C 180.345 320.708,181.200 320.123,181.200 319.937 C 181.200 319.752,181.560 319.600,182.000 319.600 C 182.440 319.600,182.800 319.420,182.800 319.200 C 182.800 318.980,183.160 318.800,183.600 318.800 C 184.040 318.800,184.400 318.620,184.400 318.400 C 184.400 318.180,184.678 318.000,185.017 318.000 C 185.356 318.000,186.020 317.640,186.492 317.200 C 186.964 316.760,187.587 316.400,187.875 316.400 C 188.164 316.400,188.400 316.220,188.400 316.000 C 188.400 315.780,188.760 315.600,189.200 315.600 C 189.640 315.600,190.000 315.420,190.000 315.200 C 190.000 314.980,190.320 314.800,190.712 314.800 C 191.103 314.800,191.683 314.440,192.000 314.000 C 192.317 313.560,192.814 313.200,193.105 313.200 C 193.396 313.200,194.020 312.840,194.492 312.400 C 194.964 311.960,195.587 311.600,195.875 311.600 C 196.164 311.600,196.400 311.420,196.400 311.200 C 196.400 310.980,196.720 310.800,197.112 310.800 C 197.503 310.800,198.083 310.440,198.400 310.000 C 198.717 309.560,199.257 309.200,199.600 309.200 C 199.943 309.200,200.483 308.840,200.800 308.400 C 201.117 307.960,201.657 307.600,202.000 307.600 C 202.343 307.600,202.883 307.240,203.200 306.800 C 203.517 306.360,204.057 306.000,204.400 306.000 C 204.743 306.000,205.283 305.640,205.600 305.200 C 205.917 304.760,206.457 304.400,206.800 304.400 C 207.143 304.400,207.683 304.040,208.000 303.600 C 208.317 303.160,208.780 302.800,209.029 302.800 C 209.278 302.800,210.046 302.260,210.737 301.600 C 211.428 300.940,212.225 300.400,212.508 300.400 C 212.791 300.400,213.283 300.040,213.600 299.600 C 213.917 299.160,214.380 298.800,214.629 298.800 C 214.878 298.800,215.646 298.260,216.337 297.600 C 217.028 296.940,217.753 296.400,217.948 296.400 C 218.144 296.400,219.045 295.680,219.952 294.800 C 220.859 293.920,221.798 293.200,222.040 293.200 C 222.281 293.200,222.983 292.660,223.600 292.000 C 224.217 291.340,224.897 290.800,225.112 290.800 C 225.327 290.800,226.245 290.080,227.152 289.200 C 228.059 288.320,229.005 287.600,229.254 287.600 C 229.502 287.600,230.035 287.220,230.438 286.756 C 231.198 285.880,232.400 286.399,232.400 287.603 C 232.400 287.856,233.120 288.754,234.000 289.600 C 234.880 290.446,235.600 291.319,235.600 291.541 C 235.600 292.105,244.659 301.200,245.220 301.200 C 245.473 301.200,246.183 301.740,246.800 302.400 C 247.417 303.060,248.143 303.600,248.414 303.600 C 248.684 303.600,249.197 303.916,249.553 304.303 C 249.909 304.689,250.695 305.260,251.300 305.570 C 251.905 305.881,252.400 306.285,252.400 306.468 C 252.400 306.650,252.760 306.800,253.200 306.800 C 253.640 306.800,254.000 306.980,254.000 307.200 C 254.000 307.420,254.278 307.600,254.617 307.600 C 254.956 307.600,255.620 307.960,256.092 308.400 C 256.564 308.840,257.367 309.200,257.875 309.200 C 258.384 309.200,258.800 309.380,258.800 309.600 C 258.800 309.820,259.160 310.000,259.600 310.000 C 260.040 310.000,260.400 310.180,260.400 310.400 C 260.400 310.620,260.760 310.800,261.200 310.800 C 261.640 310.800,262.000 310.980,262.000 311.200 C 262.000 311.420,262.439 311.600,262.976 311.600 C 263.513 311.600,264.064 311.780,264.200 312.000 C 264.336 312.220,264.977 312.400,265.624 312.400 C 266.271 312.400,266.800 312.580,266.800 312.800 C 266.800 313.020,267.340 313.200,268.000 313.200 C 268.660 313.200,269.200 313.380,269.200 313.600 C 269.200 313.820,269.819 314.000,270.576 314.000 C 271.333 314.000,272.064 314.180,272.200 314.400 C 272.336 314.620,273.337 314.800,274.424 314.800 C 275.511 314.800,276.400 314.980,276.400 315.200 C 276.400 315.428,277.592 315.600,279.176 315.600 C 280.703 315.600,282.064 315.780,282.200 316.000 C 282.536 316.544,298.800 316.544,298.800 316.000 C 298.800 315.767,300.133 315.600,302.000 315.600 C 303.867 315.600,305.200 315.433,305.200 315.200 C 305.200 314.980,306.100 314.800,307.200 314.800 C 308.300 314.800,309.200 314.620,309.200 314.400 C 309.200 314.180,310.100 314.000,311.200 314.000 C 312.300 314.000,313.200 313.820,313.200 313.600 C 313.200 313.380,313.819 313.200,314.576 313.200 C 315.333 313.200,316.064 313.020,316.200 312.800 C 316.336 312.580,316.977 312.400,317.624 312.400 C 318.271 312.400,318.800 312.220,318.800 312.000 C 318.800 311.780,319.329 311.600,319.976 311.600 C 320.623 311.600,321.264 311.420,321.400 311.200 C 321.536 310.980,322.087 310.800,322.624 310.800 C 323.161 310.800,323.600 310.620,323.600 310.400 C 323.600 310.180,324.140 310.000,324.800 310.000 C 325.460 310.000,326.000 309.820,326.000 309.600 C 326.000 309.380,326.349 309.200,326.776 309.200 C 327.203 309.200,327.664 309.020,327.800 308.800 C 327.936 308.580,328.487 308.400,329.024 308.400 C 329.561 308.400,330.000 308.220,330.000 308.000 C 330.000 307.780,330.360 307.600,330.800 307.600 C 331.240 307.600,331.600 307.420,331.600 307.200 C 331.600 306.980,331.960 306.800,332.400 306.800 C 332.840 306.800,333.200 306.620,333.200 306.400 C 333.200 306.180,333.472 306.000,333.805 306.000 C 334.138 306.000,334.813 305.792,335.305 305.538 C 337.182 304.567,337.607 304.400,338.195 304.400 C 338.528 304.400,338.800 304.220,338.800 304.000 C 338.800 303.780,339.036 303.600,339.325 303.600 C 339.613 303.600,340.236 303.240,340.708 302.800 C 341.180 302.360,341.844 302.000,342.183 302.000 C 342.522 302.000,342.800 301.820,342.800 301.600 C 342.800 301.380,343.160 301.200,343.600 301.200 C 344.040 301.200,344.400 301.020,344.400 300.800 C 344.400 300.580,344.678 300.400,345.017 300.400 C 345.356 300.400,346.020 300.040,346.492 299.600 C 346.964 299.160,347.587 298.800,347.875 298.800 C 348.164 298.800,348.400 298.620,348.400 298.400 C 348.400 298.180,348.636 298.000,348.925 298.000 C 349.213 298.000,349.798 297.685,350.225 297.300 C 350.651 296.915,351.495 296.345,352.100 296.032 C 352.705 295.720,353.200 295.315,353.200 295.132 C 353.200 294.950,353.436 294.800,353.725 294.800 C 354.013 294.800,354.636 294.440,355.108 294.000 C 355.580 293.560,356.127 293.200,356.324 293.200 C 356.521 293.200,357.246 292.660,357.937 292.000 C 358.628 291.340,359.383 290.800,359.615 290.800 C 360.688 290.800,362.000 288.815,362.000 287.190 C 362.000 284.376,362.099 284.400,350.629 284.400 C 344.076 284.400,340.400 284.256,340.400 284.000 C 340.400 283.778,339.341 283.600,338.024 283.600 C 336.717 283.600,335.536 283.420,335.400 283.200 C 335.264 282.980,334.353 282.800,333.376 282.800 C 332.399 282.800,331.600 282.620,331.600 282.400 C 331.600 282.180,331.071 282.000,330.424 282.000 C 329.777 282.000,329.136 281.820,329.000 281.600 C 328.864 281.380,328.234 281.200,327.600 281.200 C 326.966 281.200,326.336 281.020,326.200 280.800 C 326.064 280.580,325.603 280.400,325.176 280.400 C 324.749 280.400,324.400 280.220,324.400 280.000 C 324.400 279.780,323.860 279.600,323.200 279.600 C 322.540 279.600,322.000 279.420,322.000 279.200 C 322.000 278.980,321.640 278.800,321.200 278.800 C 320.760 278.800,320.400 278.620,320.400 278.400 C 320.400 278.180,320.040 278.000,319.600 278.000 C 319.160 278.000,318.800 277.820,318.800 277.600 C 318.800 277.380,318.440 277.200,318.000 277.200 C 317.560 277.200,317.200 277.020,317.200 276.800 C 317.200 276.580,316.922 276.400,316.583 276.400 C 316.244 276.400,315.580 276.040,315.108 275.600 C 314.636 275.160,314.013 274.800,313.725 274.800 C 313.436 274.800,313.200 274.620,313.200 274.400 C 313.200 274.180,312.880 274.000,312.488 274.000 C 312.097 274.000,311.517 273.640,311.200 273.200 C 310.883 272.760,310.391 272.400,310.108 272.400 C 309.825 272.400,309.028 271.860,308.337 271.200 C 307.646 270.540,306.910 270.000,306.701 270.000 C 306.492 270.000,305.817 269.460,305.200 268.800 C 304.583 268.140,303.890 267.600,303.658 267.600 C 303.108 267.600,289.680 254.217,288.407 252.400 C 287.867 251.630,286.745 250.339,285.913 249.531 C 285.081 248.724,284.400 247.869,284.400 247.632 C 284.400 247.395,283.680 246.459,282.800 245.552 C 281.920 244.645,281.200 243.695,281.200 243.440 C 281.200 243.185,280.840 242.717,280.400 242.400 C 279.960 242.083,279.600 241.620,279.600 241.371 C 279.600 241.122,279.060 240.354,278.400 239.663 C 277.740 238.972,277.200 238.252,277.200 238.063 C 277.200 237.874,276.660 237.154,276.000 236.463 C 275.340 235.772,274.800 234.975,274.800 234.692 C 274.800 234.409,274.440 233.917,274.000 233.600 C 273.560 233.283,273.200 232.743,273.200 232.400 C 273.200 232.057,273.560 231.517,274.000 231.200 C 274.440 230.883,274.800 230.303,274.800 229.912 C 274.800 229.520,274.980 229.200,275.200 229.200 C 275.420 229.200,275.600 228.922,275.600 228.583 C 275.600 228.244,275.960 227.580,276.400 227.108 C 276.840 226.636,277.200 226.013,277.200 225.725 C 277.200 225.436,277.380 225.200,277.600 225.200 C 277.820 225.200,278.000 224.840,278.000 224.400 C 278.000 223.960,278.180 223.600,278.400 223.600 C 278.620 223.600,278.800 223.322,278.800 222.983 C 278.800 222.644,279.160 221.980,279.600 221.508 C 280.040 221.036,280.400 220.413,280.400 220.125 C 280.400 219.836,280.580 219.600,280.800 219.600 C 281.020 219.600,281.200 219.240,281.200 218.800 C 281.200 218.360,281.380 218.000,281.600 218.000 C 281.820 218.000,282.000 217.764,282.000 217.475 C 282.000 217.187,282.360 216.564,282.800 216.092 C 283.240 215.620,283.600 214.956,283.600 214.617 C 283.600 214.278,283.780 214.000,284.000 214.000 C 284.220 214.000,284.400 213.722,284.400 213.383 C 284.400 213.044,284.760 212.380,285.200 211.908 C 285.640 211.436,286.000 210.813,286.000 210.525 C 286.000 210.236,286.180 210.000,286.400 210.000 C 286.620 210.000,286.800 209.640,286.800 209.200 C 286.800 208.760,286.980 208.400,287.200 208.400 C 287.420 208.400,287.600 208.080,287.600 207.688 C 287.600 207.297,287.960 206.717,288.400 206.400 C 288.840 206.083,289.200 205.503,289.200 205.112 C 289.200 204.720,289.380 204.400,289.600 204.400 C 289.820 204.400,290.000 204.122,290.000 203.783 C 290.000 203.444,290.360 202.780,290.800 202.308 C 291.240 201.836,291.600 201.213,291.600 200.925 C 291.600 200.636,291.780 200.400,292.000 200.400 C 292.220 200.400,292.400 200.040,292.400 199.600 C 292.400 199.160,292.580 198.800,292.800 198.800 C 293.020 198.800,293.200 198.522,293.200 198.183 C 293.200 197.844,293.560 197.180,294.000 196.708 C 294.440 196.236,294.800 195.613,294.800 195.325 C 294.800 195.036,294.980 194.800,295.200 194.800 C 295.420 194.800,295.600 194.440,295.600 194.000 C 295.600 193.560,295.780 193.200,296.000 193.200 C 296.220 193.200,296.400 192.964,296.400 192.675 C 296.400 192.387,296.760 191.764,297.200 191.292 C 297.640 190.820,298.000 190.156,298.000 189.817 C 298.000 189.478,298.180 189.200,298.400 189.200 C 298.620 189.200,298.800 188.922,298.800 188.583 C 298.800 188.244,299.160 187.580,299.600 187.108 C 300.040 186.636,300.400 186.013,300.400 185.725 C 300.400 185.436,300.580 185.200,300.800 185.200 C 301.020 185.200,301.200 184.840,301.200 184.400 C 301.200 183.960,301.380 183.600,301.600 183.600 C 301.820 183.600,302.000 183.364,302.000 183.075 C 302.000 182.787,302.360 182.164,302.800 181.692 C 303.240 181.220,303.600 180.556,303.600 180.217 C 303.600 179.878,303.780 179.600,304.000 179.600 C 304.220 179.600,304.400 179.322,304.400 178.983 C 304.400 178.644,304.760 177.980,305.200 177.508 C 305.640 177.036,306.000 176.413,306.000 176.125 C 306.000 175.836,306.180 175.600,306.400 175.600 C 306.620 175.600,306.800 175.322,306.800 174.983 C 306.800 174.644,307.160 173.980,307.600 173.508 C 308.040 173.036,308.400 172.413,308.400 172.125 C 308.400 171.836,308.580 171.600,308.800 171.600 C 309.020 171.600,309.200 171.240,309.200 170.800 C 309.200 170.360,309.380 170.000,309.600 170.000 C 309.820 170.000,310.000 169.764,310.000 169.475 C 310.000 169.187,310.360 168.564,310.800 168.092 C 311.240 167.620,311.600 166.956,311.600 166.617 C 311.600 166.278,311.780 166.000,312.000 166.000 C 312.220 166.000,312.400 165.764,312.400 165.475 C 312.400 165.187,312.760 164.564,313.200 164.092 C 313.640 163.620,314.000 163.038,314.000 162.800 C 314.000 162.562,314.360 161.980,314.800 161.508 C 315.240 161.036,315.600 160.413,315.600 160.125 C 315.600 159.836,315.780 159.600,316.000 159.600 C 316.220 159.600,316.400 159.280,316.400 158.888 C 316.400 158.497,316.760 157.917,317.200 157.600 C 317.640 157.283,318.000 156.786,318.000 156.495 C 318.000 156.204,318.360 155.580,318.800 155.108 C 319.240 154.636,319.600 154.013,319.600 153.725 C 319.600 153.436,319.780 153.200,320.000 153.200 C 320.220 153.200,320.400 152.964,320.400 152.675 C 320.400 152.387,320.760 151.764,321.200 151.292 C 321.640 150.820,322.000 150.196,322.000 149.905 C 322.000 149.614,322.360 149.117,322.800 148.800 C 323.240 148.483,323.600 148.038,323.601 147.812 C 323.601 147.585,324.141 146.770,324.800 146.000 C 325.459 145.230,325.999 144.415,325.999 144.188 C 326.000 143.962,326.360 143.517,326.800 143.200 C 327.240 142.883,327.600 142.343,327.600 142.000 C 327.600 141.657,327.960 141.117,328.400 140.800 C 328.840 140.483,329.200 139.991,329.200 139.708 C 329.200 139.425,329.740 138.628,330.400 137.937 C 331.060 137.246,331.600 136.478,331.600 136.229 C 331.600 135.980,331.960 135.517,332.400 135.200 C 332.840 134.883,333.200 134.391,333.200 134.108 C 333.200 133.825,333.740 133.028,334.400 132.337 C 335.060 131.646,335.600 130.878,335.600 130.629 C 335.600 130.380,335.960 129.917,336.400 129.600 C 336.840 129.283,337.200 128.822,337.200 128.575 C 337.200 127.861,340.832 124.212,341.131 124.626 C 341.279 124.833,341.895 125.256,342.500 125.568 C 343.105 125.880,343.600 126.285,343.600 126.468 C 343.600 126.650,343.843 126.800,344.141 126.800 C 344.438 126.800,345.246 127.340,345.937 128.000 C 346.628 128.660,347.353 129.200,347.548 129.200 C 347.744 129.200,348.600 129.876,349.452 130.702 C 350.303 131.528,351.630 132.652,352.400 133.200 C 354.122 134.425,368.400 148.658,368.400 149.149 C 368.400 149.344,369.120 150.245,370.000 151.152 C 370.880 152.059,371.600 152.954,371.600 153.141 C 371.600 153.328,372.140 154.046,372.800 154.737 C 373.460 155.428,374.000 156.137,374.000 156.312 C 374.000 156.488,374.720 157.428,375.600 158.400 C 376.480 159.372,377.200 160.334,377.200 160.537 C 377.200 161.256,379.414 162.799,380.447 162.800 C 381.524 162.800,383.600 160.320,383.600 159.032 C 383.600 158.710,383.780 158.336,384.000 158.200 C 384.220 158.064,384.400 157.603,384.400 157.176 C 384.400 156.749,384.580 156.400,384.800 156.400 C 385.020 156.400,385.200 156.040,385.200 155.600 C 385.200 155.160,385.380 154.800,385.600 154.800 C 385.820 154.800,386.000 154.440,386.000 154.000 C 386.000 153.560,386.180 153.200,386.400 153.200 C 386.620 153.200,386.800 152.840,386.800 152.400 C 386.800 151.960,386.980 151.600,387.200 151.600 C 387.420 151.600,387.600 151.240,387.600 150.800 C 387.600 150.360,387.780 150.000,388.000 150.000 C 388.220 150.000,388.400 149.651,388.400 149.224 C 388.400 148.797,388.580 148.336,388.800 148.200 C 389.020 148.064,389.200 147.513,389.200 146.976 C 389.200 146.439,389.380 146.000,389.600 146.000 C 389.820 146.000,390.000 145.640,390.000 145.200 C 390.000 144.760,390.180 144.400,390.400 144.400 C 390.620 144.400,390.800 144.040,390.800 143.600 C 390.800 143.160,390.980 142.800,391.200 142.800 C 391.420 142.800,391.600 142.451,391.600 142.024 C 391.600 141.597,391.780 141.136,392.000 141.000 C 392.220 140.864,392.400 140.313,392.400 139.776 C 392.400 139.239,392.580 138.800,392.800 138.800 C 393.020 138.800,393.200 138.440,393.200 138.000 C 393.200 137.560,393.380 137.200,393.600 137.200 C 393.820 137.200,394.000 136.840,394.000 136.400 C 394.000 135.960,394.180 135.600,394.400 135.600 C 394.620 135.600,394.800 135.240,394.800 134.800 C 394.800 134.360,394.980 134.000,395.200 134.000 C 395.420 134.000,395.600 133.561,395.600 133.024 C 395.600 132.487,395.780 131.936,396.000 131.800 C 396.220 131.664,396.400 131.203,396.400 130.776 C 396.400 130.349,396.580 130.000,396.800 130.000 C 397.020 130.000,397.200 129.460,397.200 128.800 C 397.200 128.140,397.020 127.600,396.800 127.600 C 396.580 127.600,396.400 127.060,396.400 126.400 C 396.400 125.740,396.220 125.200,396.000 125.200 C 395.780 125.200,395.600 124.660,395.600 124.000 C 395.600 123.340,395.420 122.800,395.200 122.800 C 394.980 122.800,394.800 122.260,394.800 121.600 C 394.800 120.940,394.620 120.400,394.400 120.400 C 394.180 120.400,394.000 119.860,394.000 119.200 C 394.000 118.540,393.820 118.000,393.600 118.000 C 393.380 118.000,393.200 117.460,393.200 116.800 C 393.200 116.140,393.020 115.600,392.800 115.600 C 392.580 115.600,392.400 115.060,392.400 114.400 C 392.400 113.740,392.220 113.200,392.000 113.200 C 391.780 113.200,391.600 112.660,391.600 112.000 C 391.600 111.340,391.420 110.800,391.200 110.800 C 390.980 110.800,390.800 110.260,390.800 109.600 C 390.800 108.940,390.620 108.400,390.400 108.400 C 390.180 108.400,390.000 107.860,390.000 107.200 C 390.000 106.540,389.820 106.000,389.600 106.000 C 389.380 106.000,389.200 105.471,389.200 104.824 C 389.200 104.177,389.020 103.536,388.800 103.400 C 388.580 103.264,388.400 102.713,388.400 102.176 C 388.400 101.639,388.220 101.200,388.000 101.200 C 387.780 101.200,387.600 100.660,387.600 100.000 C 387.600 99.340,387.420 98.800,387.200 98.800 C 386.980 98.800,386.800 98.260,386.800 97.600 C 386.800 96.940,386.620 96.400,386.400 96.400 C 386.180 96.400,386.000 96.045,386.000 95.612 C 386.000 93.775,381.692 88.400,380.219 88.400 C 379.879 88.400,379.600 88.220,379.600 88.000 C 379.600 87.780,379.240 87.600,378.800 87.600 C 378.360 87.600,378.000 87.420,378.000 87.200 C 378.000 86.980,377.640 86.800,377.200 86.800 C 376.760 86.800,376.400 86.620,376.400 86.400 C 376.400 86.180,376.051 86.000,375.624 86.000 C 375.197 86.000,374.736 85.820,374.600 85.600 C 374.464 85.380,373.913 85.200,373.376 85.200 C 372.839 85.200,372.400 85.020,372.400 84.800 C 372.400 84.580,371.860 84.400,371.200 84.400 C 370.540 84.400,370.000 84.220,370.000 84.000 C 370.000 83.780,369.471 83.600,368.824 83.600 C 368.177 83.600,367.536 83.420,367.400 83.200 C 367.264 82.980,366.004 82.800,364.600 82.800 C 363.196 82.800,361.936 82.620,361.800 82.400 C 361.664 82.180,360.753 82.000,359.776 82.000 C 358.799 82.000,358.000 82.180,358.000 82.400 M366.000 86.296 C 370.108 87.196,378.058 90.674,380.255 92.533 C 382.054 94.056,382.623 95.470,388.025 111.860 C 390.697 119.967,393.045 126.913,393.242 127.295 C 393.811 128.397,393.680 129.079,392.354 131.925 C 390.594 135.703,389.407 138.302,388.438 140.500 C 385.840 146.393,385.232 147.725,382.036 154.530 C 380.068 158.723,380.184 158.731,376.703 154.172 C 371.370 147.185,369.429 144.964,363.431 138.984 C 354.228 129.808,347.840 124.525,342.951 122.043 C 339.339 120.210,339.033 120.345,335.230 125.432 C 334.256 126.734,332.984 128.430,332.402 129.200 C 331.821 129.970,330.561 131.770,329.603 133.200 C 328.644 134.630,327.745 135.890,327.604 136.000 C 327.377 136.177,325.835 138.406,319.717 147.400 C 317.809 150.206,313.787 156.472,312.785 158.200 C 312.402 158.860,310.241 162.460,307.983 166.200 C 305.724 169.940,303.567 173.540,303.189 174.200 C 302.812 174.860,301.556 177.020,300.400 179.000 C 299.244 180.980,297.984 183.140,297.600 183.800 C 297.216 184.460,295.956 186.620,294.800 188.600 C 293.644 190.580,292.360 192.785,291.949 193.500 C 290.480 196.050,289.661 197.465,286.800 202.400 C 283.542 208.018,282.726 209.431,281.656 211.300 C 281.247 212.015,280.321 213.590,279.600 214.800 C 278.879 216.010,277.953 217.585,277.544 218.300 C 274.924 222.877,271.557 228.634,270.467 230.400 C 268.982 232.806,269.084 233.012,277.005 243.588 C 290.720 261.900,303.817 273.932,317.068 280.390 C 323.090 283.325,327.575 284.954,332.400 285.957 C 333.610 286.209,335.410 286.599,336.400 286.823 C 337.390 287.048,342.475 287.341,347.700 287.474 C 352.925 287.608,357.200 287.842,357.200 287.994 C 357.200 288.350,351.675 292.332,348.677 294.137 C 347.410 294.900,346.155 295.697,345.887 295.908 C 345.619 296.120,344.590 296.742,343.600 297.290 C 342.610 297.838,341.080 298.696,340.200 299.197 C 336.298 301.415,327.459 305.600,326.675 305.600 C 326.377 305.600,326.014 305.719,325.868 305.865 C 325.428 306.306,320.342 308.074,315.400 309.505 C 311.395 310.665,309.191 311.147,301.800 312.480 C 298.057 313.155,282.666 313.140,279.200 312.458 C 262.541 309.181,253.346 304.494,241.807 293.400 C 241.349 292.960,239.573 290.890,237.859 288.800 C 232.288 282.005,231.935 281.600,231.593 281.600 C 231.327 281.600,225.879 285.755,222.000 288.917 C 221.670 289.186,218.880 291.283,215.800 293.578 C 212.720 295.872,209.570 298.225,208.800 298.807 C 197.241 307.539,175.860 319.815,161.800 325.795 C 161.140 326.075,159.911 326.611,159.069 326.986 C 157.168 327.832,152.273 329.620,146.929 331.422 C 124.001 339.154,100.630 340.542,79.400 335.434 C 74.118 334.163,66.991 331.994,64.100 330.779 C 63.048 330.336,62.071 329.935,59.601 328.931 C 57.626 328.129,46.116 322.415,44.200 321.287 C 43.540 320.898,42.100 320.057,41.000 319.419 C 31.532 313.921,21.788 306.787,21.403 305.072 C 21.246 304.372,20.971 303.170,20.792 302.400 C 20.268 300.147,16.724 286.700,15.995 284.200 C 15.803 283.540,15.455 282.325,15.223 281.500 C 14.990 280.675,14.610 279.325,14.377 278.500 C 14.145 277.675,13.797 276.460,13.605 275.800 C 13.413 275.140,12.897 273.250,12.459 271.600 C 12.021 269.950,11.377 267.551,11.028 266.268 L 10.393 263.936 11.540 261.868 C 12.171 260.731,13.613 258.315,14.744 256.500 C 15.875 254.685,17.666 251.805,18.725 250.100 C 19.784 248.395,21.494 245.695,22.525 244.100 C 26.517 237.924,27.933 235.652,30.373 231.500 C 33.006 227.019,33.509 226.606,34.512 228.100 C 34.844 228.595,35.450 229.361,35.858 229.802 C 36.266 230.244,37.762 232.134,39.183 234.002 C 40.604 235.871,41.864 237.490,41.983 237.600 C 42.102 237.710,43.186 238.970,44.392 240.400 C 53.031 250.649,66.884 264.424,75.000 270.837 C 80.780 275.404,91.042 281.339,98.000 284.138 C 98.990 284.536,100.160 285.011,100.600 285.194 C 105.617 287.274,112.311 289.314,119.000 290.800 C 123.339 291.764,124.356 291.962,127.000 292.356 C 128.540 292.586,131.240 292.988,133.000 293.251 C 137.180 293.874,155.214 293.867,159.400 293.240 C 175.001 290.906,184.159 287.600,200.900 278.260 C 201.945 277.677,203.565 276.775,204.500 276.257 C 205.435 275.738,206.875 274.928,207.700 274.457 C 208.525 273.985,209.844 273.235,210.631 272.789 C 214.268 270.729,219.204 267.120,219.246 266.490 C 219.340 265.090,219.098 264.181,218.359 263.142 C 217.941 262.556,217.600 261.959,217.600 261.815 C 217.600 261.671,213.669 255.668,208.864 248.476 C 201.204 237.011,197.903 231.921,196.229 229.000 C 195.976 228.560,195.147 227.120,194.386 225.800 C 193.624 224.480,192.693 222.860,192.317 222.200 C 191.366 220.532,187.857 213.415,186.795 211.000 C 185.557 208.185,184.768 206.331,184.413 205.400 C 184.245 204.960,183.921 204.150,183.693 203.600 C 183.465 203.050,182.918 201.610,182.478 200.400 C 182.038 199.190,181.377 197.399,181.010 196.420 C 180.266 194.436,178.214 188.181,176.804 183.600 C 176.296 181.950,175.616 179.790,175.293 178.800 C 174.970 177.810,174.546 176.415,174.353 175.700 C 174.159 174.985,173.832 173.815,173.628 173.100 C 173.423 172.385,172.870 170.360,172.400 168.600 C 171.930 166.840,171.390 164.860,171.202 164.200 C 170.695 162.430,168.386 153.622,168.003 152.000 C 167.621 150.386,166.537 146.047,166.003 144.000 C 165.597 142.445,164.149 136.282,163.606 133.800 C 163.414 132.920,163.072 131.390,162.848 130.400 C 162.623 129.410,162.255 127.700,162.031 126.600 C 161.806 125.500,161.438 123.755,161.211 122.723 C 160.431 119.163,160.663 117.104,161.946 116.200 C 167.309 112.423,188.060 98.786,188.975 98.438 C 189.209 98.349,190.697 97.404,192.282 96.338 C 193.867 95.272,195.275 94.400,195.410 94.400 C 195.545 94.400,196.409 93.882,197.330 93.248 C 198.251 92.615,199.633 91.738,200.402 91.300 C 201.171 90.861,203.404 89.571,205.363 88.433 C 209.349 86.118,209.856 86.102,210.187 88.279 C 210.314 89.116,210.607 91.060,210.838 92.600 C 211.068 94.140,211.535 96.840,211.876 98.600 C 212.216 100.360,212.648 102.610,212.837 103.600 C 213.025 104.590,213.351 106.030,213.562 106.800 C 213.772 107.570,214.330 109.640,214.800 111.400 C 216.085 116.208,216.257 116.813,217.018 119.200 C 218.764 124.676,220.450 129.669,221.611 132.800 C 222.304 134.670,223.014 136.650,223.188 137.200 C 223.606 138.517,228.248 150.097,229.281 152.400 C 229.726 153.390,230.519 155.150,231.045 156.312 C 231.570 157.473,232.000 158.504,232.000 158.602 C 232.000 158.785,233.351 161.776,235.861 167.149 C 242.032 180.362,256.749 208.933,260.196 214.393 C 262.514 218.065,261.841 218.961,272.498 198.000 C 279.825 183.587,283.216 177.084,287.308 169.600 C 287.970 168.390,289.048 166.410,289.705 165.200 C 290.361 163.990,291.214 162.460,291.599 161.800 C 291.985 161.140,292.748 159.790,293.294 158.800 C 295.017 155.677,295.880 154.183,297.563 151.412 C 298.463 149.931,299.200 148.644,299.200 148.553 C 299.200 148.462,299.801 147.445,300.536 146.294 C 301.270 145.142,303.010 142.400,304.402 140.200 C 310.327 130.836,318.822 118.851,322.273 114.987 C 322.673 114.539,323.984 113.009,325.187 111.587 C 334.624 100.425,347.659 88.722,352.664 86.917 C 353.289 86.692,354.340 86.317,355.000 86.084 C 356.401 85.589,363.389 85.724,366.000 86.296 " stroke="none" fill="#000000" fill-rule="evenodd"></path><path id="path1" d="M355.000 86.084 C 354.340 86.317,353.289 86.692,352.664 86.917 C 347.659 88.722,334.624 100.425,325.187 111.587 C 323.984 113.009,322.673 114.539,322.273 114.987 C 318.822 118.851,310.327 130.836,304.402 140.200 C 303.010 142.400,301.270 145.142,300.536 146.294 C 299.801 147.445,299.200 148.462,299.200 148.553 C 299.200 148.644,298.463 149.931,297.563 151.412 C 295.880 154.183,295.017 155.677,293.294 158.800 C 292.748 159.790,291.985 161.140,291.599 161.800 C 291.214 162.460,290.361 163.990,289.705 165.200 C 289.048 166.410,287.970 168.390,287.308 169.600 C 283.216 177.084,279.825 183.587,272.498 198.000 C 265.369 212.022,263.650 215.269,262.993 215.955 C 261.596 217.414,260.786 216.168,250.934 197.400 C 248.085 191.971,238.025 171.782,235.861 167.149 C 233.351 161.776,232.000 158.785,232.000 158.602 C 232.000 158.504,231.570 157.473,231.045 156.312 C 230.519 155.150,229.726 153.390,229.281 152.400 C 228.248 150.097,223.606 138.517,223.188 137.200 C 223.014 136.650,222.304 134.670,221.611 132.800 C 220.450 129.669,218.764 124.676,217.018 119.200 C 216.257 116.813,216.085 116.208,214.800 111.400 C 214.330 109.640,213.772 107.570,213.562 106.800 C 213.351 106.030,213.025 104.590,212.837 103.600 C 212.648 102.610,212.216 100.360,211.876 98.600 C 211.535 96.840,211.068 94.140,210.838 92.600 C 210.607 91.060,210.314 89.116,210.187 88.279 C 209.856 86.102,209.349 86.118,205.363 88.433 C 203.404 89.571,201.171 90.861,200.402 91.300 C 199.633 91.738,198.251 92.615,197.330 93.248 C 196.409 93.882,195.545 94.400,195.410 94.400 C 195.275 94.400,193.867 95.272,192.282 96.338 C 190.697 97.404,189.209 98.349,188.975 98.438 C 188.060 98.786,167.309 112.423,161.946 116.200 C 160.663 117.104,160.431 119.163,161.211 122.723 C 161.438 123.755,161.806 125.500,162.031 126.600 C 162.255 127.700,162.623 129.410,162.848 130.400 C 163.072 131.390,163.414 132.920,163.606 133.800 C 164.149 136.282,165.597 142.445,166.003 144.000 C 166.537 146.047,167.621 150.386,168.003 152.000 C 168.386 153.622,170.695 162.430,171.202 164.200 C 171.390 164.860,171.930 166.840,172.400 168.600 C 172.870 170.360,173.423 172.385,173.628 173.100 C 173.832 173.815,174.159 174.985,174.353 175.700 C 174.546 176.415,174.970 177.810,175.293 178.800 C 175.616 179.790,176.296 181.950,176.804 183.600 C 178.214 188.181,180.266 194.436,181.010 196.420 C 181.377 197.399,182.038 199.190,182.478 200.400 C 182.918 201.610,183.465 203.050,183.693 203.600 C 183.921 204.150,184.245 204.960,184.413 205.400 C 184.768 206.331,185.557 208.185,186.795 211.000 C 187.857 213.415,191.366 220.532,192.317 222.200 C 192.693 222.860,193.624 224.480,194.386 225.800 C 195.147 227.120,195.976 228.560,196.229 229.000 C 197.903 231.921,201.204 237.011,208.864 248.476 C 213.669 255.668,217.600 261.671,217.600 261.815 C 217.600 261.959,217.941 262.556,218.359 263.142 C 219.098 264.181,219.340 265.090,219.246 266.490 C 219.204 267.120,214.268 270.729,210.631 272.789 C 209.844 273.235,208.525 273.985,207.700 274.457 C 206.875 274.928,205.435 275.738,204.500 276.257 C 203.565 276.775,201.945 277.677,200.900 278.260 C 184.159 287.600,175.001 290.906,159.400 293.240 C 155.214 293.867,137.180 293.874,133.000 293.251 C 131.240 292.988,128.540 292.586,127.000 292.356 C 124.356 291.962,123.339 291.764,119.000 290.800 C 112.311 289.314,105.617 287.274,100.600 285.194 C 100.160 285.011,98.990 284.536,98.000 284.138 C 91.042 281.339,80.780 275.404,75.000 270.837 C 66.884 264.424,53.031 250.649,44.392 240.400 C 43.186 238.970,42.102 237.710,41.983 237.600 C 41.864 237.490,40.604 235.871,39.183 234.002 C 37.762 232.134,36.266 230.244,35.858 229.802 C 35.450 229.361,34.844 228.595,34.512 228.100 C 33.509 226.606,33.006 227.019,30.373 231.500 C 27.933 235.652,26.517 237.924,22.525 244.100 C 21.494 245.695,19.784 248.395,18.725 250.100 C 17.666 251.805,15.875 254.685,14.744 256.500 C 13.613 258.315,12.171 260.731,11.540 261.868 L 10.393 263.936 11.028 266.268 C 11.377 267.551,12.021 269.950,12.459 271.600 C 12.897 273.250,13.413 275.140,13.605 275.800 C 13.797 276.460,14.145 277.675,14.377 278.500 C 14.610 279.325,14.990 280.675,15.223 281.500 C 15.455 282.325,15.803 283.540,15.995 284.200 C 16.724 286.700,20.268 300.147,20.792 302.400 C 20.971 303.170,21.246 304.372,21.403 305.072 C 21.788 306.787,31.532 313.921,41.000 319.419 C 42.100 320.057,43.540 320.898,44.200 321.287 C 46.116 322.415,57.626 328.129,59.601 328.931 C 62.071 329.935,63.048 330.336,64.100 330.779 C 66.991 331.994,74.118 334.163,79.400 335.434 C 100.630 340.542,124.001 339.154,146.929 331.422 C 152.273 329.620,157.168 327.832,159.069 326.986 C 159.911 326.611,161.140 326.075,161.800 325.795 C 175.860 319.815,197.241 307.539,208.800 298.807 C 209.570 298.225,212.720 295.872,215.800 293.578 C 218.880 291.283,221.670 289.186,222.000 288.917 C 225.879 285.755,231.327 281.600,231.593 281.600 C 231.935 281.600,232.288 282.005,237.859 288.800 C 239.573 290.890,241.349 292.960,241.807 293.400 C 253.346 304.494,262.541 309.181,279.200 312.458 C 282.666 313.140,298.057 313.155,301.800 312.480 C 309.191 311.147,311.395 310.665,315.400 309.505 C 320.342 308.074,325.428 306.306,325.868 305.865 C 326.014 305.719,326.377 305.600,326.675 305.600 C 327.459 305.600,336.298 301.415,340.200 299.197 C 341.080 298.696,342.610 297.838,343.600 297.290 C 344.590 296.742,345.619 296.120,345.887 295.908 C 346.155 295.697,347.410 294.900,348.677 294.137 C 351.675 292.332,357.200 288.350,357.200 287.994 C 357.200 287.842,352.925 287.608,347.700 287.474 C 342.475 287.341,337.390 287.048,336.400 286.823 C 335.410 286.599,333.610 286.209,332.400 285.957 C 311.816 281.675,290.698 264.312,271.263 235.692 C 269.359 232.889,269.275 232.331,270.467 230.400 C 271.557 228.634,274.924 222.877,277.544 218.300 C 277.953 217.585,278.879 216.010,279.600 214.800 C 280.321 213.590,281.247 212.015,281.656 211.300 C 282.726 209.431,283.542 208.018,286.800 202.400 C 289.661 197.465,290.480 196.050,291.949 193.500 C 292.360 192.785,293.644 190.580,294.800 188.600 C 295.956 186.620,297.216 184.460,297.600 183.800 C 297.984 183.140,299.244 180.980,300.400 179.000 C 301.556 177.020,302.812 174.860,303.189 174.200 C 303.567 173.540,305.724 169.940,307.983 166.200 C 310.241 162.460,312.402 158.860,312.785 158.200 C 313.787 156.472,317.809 150.206,319.717 147.400 C 325.835 138.406,327.377 136.177,327.604 136.000 C 327.745 135.890,328.644 134.630,329.603 133.200 C 330.561 131.770,331.821 129.970,332.402 129.200 C 332.984 128.430,334.256 126.734,335.230 125.432 C 339.033 120.345,339.339 120.210,342.951 122.043 C 347.840 124.525,354.228 129.808,363.431 138.984 C 369.429 144.964,371.370 147.185,376.703 154.172 C 380.184 158.731,380.068 158.723,382.036 154.530 C 385.232 147.725,385.840 146.393,388.438 140.500 C 389.407 138.302,390.594 135.703,392.354 131.925 C 393.680 129.079,393.811 128.397,393.242 127.295 C 393.045 126.913,390.697 119.967,388.025 111.860 C 381.454 91.924,382.002 92.882,375.400 89.780 C 367.739 86.180,359.139 84.622,355.000 86.084 " stroke="none" fill="#92e829" fill-rule="evenodd"></path></g></svg>